<svg width="24" height="24" viewBox="0 0 24 24" fill="currentColor" xmlns="http://www.w3.org/2000/svg">
<path d="M22 23.748H2C1.66848 23.748 1.35054 23.6164 1.11612 23.3819C0.881696 23.1475 0.75 22.8296 0.75 22.498C0.75 22.1665 0.881696 21.8486 1.11612 21.6142C1.35054 21.3797 1.66848 21.248 2 21.248H22C22.3315 21.248 22.6495 21.3797 22.8839 21.6142C23.1183 21.8486 23.25 22.1665 23.25 22.498C23.25 22.8296 23.1183 23.1475 22.8839 23.3819C22.6495 23.6164 22.3315 23.748 22 23.748Z" fill="currentColor"/>
<path d="M22 2.74805H2C1.66848 2.74805 1.35054 2.61635 1.11612 2.38193C0.881696 2.14751 0.75 1.82957 0.75 1.49805C0.75 1.16653 0.881696 0.848584 1.11612 0.614163C1.35054 0.379743 1.66848 0.248047 2 0.248047H22C22.3315 0.248047 22.6495 0.379743 22.8839 0.614163C23.1183 0.848584 23.25 1.16653 23.25 1.49805C23.25 1.82957 23.1183 2.14751 22.8839 2.38193C22.6495 2.61635 22.3315 2.74805 22 2.74805Z" fill="currentColor"/>
<path d="M20 9.74805H4C3.66848 9.74805 3.35054 9.61635 3.11612 9.38193C2.8817 9.14751 2.75 8.82957 2.75 8.49805C2.75 8.16653 2.8817 7.84858 3.11612 7.61416C3.35054 7.37974 3.66848 7.24805 4 7.24805H20C20.3315 7.24805 20.6495 7.37974 20.8839 7.61416C21.1183 7.84858 21.25 8.16653 21.25 8.49805C21.25 8.82957 21.1183 9.14751 20.8839 9.38193C20.6495 9.61635 20.3315 9.74805 20 9.74805Z" fill="currentColor"/>
<path d="M17.5 16.748H6.5C6.16848 16.748 5.85054 16.6164 5.61612 16.3819C5.3817 16.1475 5.25 15.8296 5.25 15.498C5.25 15.1665 5.3817 14.8486 5.61612 14.6142C5.85054 14.3797 6.16848 14.248 6.5 14.248H17.5C17.8315 14.248 18.1495 14.3797 18.3839 14.6142C18.6183 14.8486 18.75 15.1665 18.75 15.498C18.75 15.8296 18.6183 16.1475 18.3839 16.3819C18.1495 16.6164 17.8315 16.748 17.5 16.748Z" fill="currentColor"/>
</svg>
