<svg width="24" height="24" viewBox="0 0 24 24" fill="currentColor" xmlns="http://www.w3.org/2000/svg">
<g clip-path="url(#clip0)">
<path d="M23 22H1C0.734784 22 0.48043 22.1054 0.292893 22.2929C0.105357 22.4804 0 22.7348 0 23C0 23.2652 0.105357 23.5196 0.292893 23.7071C0.48043 23.8946 0.734784 24 1 24H23C23.2652 24 23.5196 23.8946 23.7071 23.7071C23.8946 23.5196 24 23.2652 24 23C24 22.7348 23.8946 22.4804 23.7071 22.2929C23.5196 22.1054 23.2652 22 23 22Z" fill="currentColor"/>
<path d="M23 16.5H4.5C4.23478 16.5 3.98043 16.6054 3.79289 16.7929C3.60536 16.9804 3.5 17.2348 3.5 17.5C3.5 17.7652 3.60536 18.0196 3.79289 18.2071C3.98043 18.3946 4.23478 18.5 4.5 18.5H23C23.2652 18.5 23.5196 18.3946 23.7071 18.2071C23.8946 18.0196 24 17.7652 24 17.5C24 17.2348 23.8946 16.9804 23.7071 16.7929C23.5196 16.6054 23.2652 16.5 23 16.5Z" fill="currentColor"/>
<path d="M23 11H1C0.734784 11 0.48043 11.1054 0.292893 11.2929C0.105357 11.4804 0 11.7348 0 12C0 12.2652 0.105357 12.5196 0.292893 12.7071C0.48043 12.8946 0.734784 13 1 13H23C23.2652 13 23.5196 12.8946 23.7071 12.7071C23.8946 12.5196 24 12.2652 24 12C24 11.7348 23.8946 11.4804 23.7071 11.2929C23.5196 11.1054 23.2652 11 23 11Z" fill="currentColor"/>
<path d="M23 5.5H4.5C4.23478 5.5 3.98043 5.60536 3.79289 5.79289C3.60536 5.98043 3.5 6.23478 3.5 6.5C3.5 6.76522 3.60536 7.01957 3.79289 7.20711C3.98043 7.39464 4.23478 7.5 4.5 7.5H23C23.2652 7.5 23.5196 7.39464 23.7071 7.20711C23.8946 7.01957 24 6.76522 24 6.5C24 6.23478 23.8946 5.98043 23.7071 5.79289C23.5196 5.60536 23.2652 5.5 23 5.5Z" fill="currentColor"/>
<path d="M1 2H23C23.2652 2 23.5196 1.89464 23.7071 1.70711C23.8946 1.51957 24 1.26522 24 1C24 0.734784 23.8946 0.48043 23.7071 0.292893C23.5196 0.105357 23.2652 0 23 0L1 0C0.734784 0 0.48043 0.105357 0.292893 0.292893C0.105357 0.48043 0 0.734784 0 1C0 1.26522 0.105357 1.51957 0.292893 1.70711C0.48043 1.89464 0.734784 2 1 2Z" fill="currentColor"/>
</g>
<defs>
<clipPath id="clip0">
<rect width="24" height="24" fill="white"/>
</clipPath>
</defs>
</svg>
