<svg width="24" height="24" viewBox="0 0 24 24" fill="currentColor" xmlns="http://www.w3.org/2000/svg">
<path d="M8.25 11.25H15.75C16.214 11.2495 16.6588 11.0649 16.9869 10.7369C17.3149 10.4088 17.4995 9.96397 17.5 9.5V2C17.4995 1.53603 17.3149 1.09122 16.9869 0.763148C16.6588 0.435074 16.214 0.250529 15.75 0.25H8.25C7.78603 0.250529 7.34122 0.435074 7.01315 0.763148C6.68507 1.09122 6.50053 1.53603 6.5 2V9.5C6.50053 9.96397 6.68507 10.4088 7.01315 10.7369C7.34122 11.0649 7.78603 11.2495 8.25 11.25ZM8.75 5V4C8.75 3.60218 8.90804 3.22064 9.18934 2.93934C9.47064 2.65804 9.85218 2.5 10.25 2.5H11.25C11.3826 2.5 11.5098 2.55268 11.6036 2.64645C11.6973 2.74021 11.75 2.86739 11.75 3C11.75 3.13261 11.6973 3.25979 11.6036 3.35355C11.5098 3.44732 11.3826 3.5 11.25 3.5H10.25C10.1174 3.5 9.99021 3.55268 9.89645 3.64645C9.80268 3.74021 9.75 3.86739 9.75 4V5C9.75 5.13261 9.69732 5.25979 9.60355 5.35355C9.50979 5.44732 9.38261 5.5 9.25 5.5C9.11739 5.5 8.99021 5.44732 8.89645 5.35355C8.80268 5.25979 8.75 5.13261 8.75 5Z" fill="currentColor"/>
<path d="M9.25 12.75H1.75C1.28603 12.7505 0.841222 12.9351 0.513148 13.2631C0.185074 13.5912 0.00052934 14.036 0 14.5L0 22C0.00052934 22.464 0.185074 22.9088 0.513148 23.2369C0.841222 23.5649 1.28603 23.7495 1.75 23.75H9.25C9.71397 23.7495 10.1588 23.5649 10.4869 23.2369C10.8149 22.9088 10.9995 22.464 11 22V14.5C10.9995 14.036 10.8149 13.5912 10.4869 13.2631C10.1588 12.9351 9.71397 12.7505 9.25 12.75ZM5.25 15.5C5.25 15.6326 5.19732 15.7598 5.10355 15.8536C5.00979 15.9473 4.88261 16 4.75 16H3.75C3.61739 16 3.49021 16.0527 3.39645 16.1464C3.30268 16.2402 3.25 16.3674 3.25 16.5V17.5C3.25 17.6326 3.19732 17.7598 3.10355 17.8536C3.00979 17.9473 2.88261 18 2.75 18C2.61739 18 2.49021 17.9473 2.39645 17.8536C2.30268 17.7598 2.25 17.6326 2.25 17.5V16.5C2.25 16.1022 2.40804 15.7206 2.68934 15.4393C2.97064 15.158 3.35218 15 3.75 15H4.75C4.88261 15 5.00979 15.0527 5.10355 15.1464C5.19732 15.2402 5.25 15.3674 5.25 15.5Z" fill="currentColor"/>
<path d="M22.25 12.75H14.75C14.286 12.7505 13.8412 12.9351 13.5131 13.2631C13.1851 13.5912 13.0005 14.036 13 14.5V22C13.0005 22.464 13.1851 22.9088 13.5131 23.2369C13.8412 23.5649 14.286 23.7495 14.75 23.75H22.25C22.714 23.7495 23.1588 23.5649 23.4869 23.2369C23.8149 22.9088 23.9995 22.464 24 22V14.5C23.9995 14.036 23.8149 13.5912 23.4869 13.2631C23.1588 12.9351 22.714 12.7505 22.25 12.75ZM18.25 15.5C18.25 15.6326 18.1973 15.7598 18.1036 15.8536C18.0098 15.9473 17.8826 16 17.75 16H16.75C16.6174 16 16.4902 16.0527 16.3964 16.1464C16.3027 16.2402 16.25 16.3674 16.25 16.5V17.5C16.25 17.6326 16.1973 17.7598 16.1036 17.8536C16.0098 17.9473 15.8826 18 15.75 18C15.6174 18 15.4902 17.9473 15.3964 17.8536C15.3027 17.7598 15.25 17.6326 15.25 17.5V16.5C15.25 16.1022 15.408 15.7206 15.6893 15.4393C15.9706 15.158 16.3522 15 16.75 15H17.75C17.8826 15 18.0098 15.0527 18.1036 15.1464C18.1973 15.2402 18.25 15.3674 18.25 15.5Z" fill="currentColor"/>
</svg>
