<svg width="24" height="24" viewBox="0 0 24 24" fill="currentColor" xmlns="http://www.w3.org/2000/svg">
<path d="M12.5671 1.25794C10.416 1.34372 8.33942 2.0691 6.60279 3.34133C4.86616 4.61356 3.54844 6.37483 2.8181 8.39994C2.79863 8.45418 2.76103 8.50003 2.71164 8.52974C2.66226 8.55944 2.60413 8.57117 2.5471 8.56294L0.858096 8.30894C0.765534 8.29707 0.671488 8.31063 0.586045 8.34815C0.500602 8.38568 0.426987 8.44576 0.373096 8.52194C0.320238 8.59942 0.290238 8.69021 0.286525 8.78393C0.282812 8.87765 0.305534 8.97052 0.352096 9.05194L3.0311 13.7519C3.06915 13.8185 3.12201 13.8754 3.18559 13.9183C3.24916 13.9612 3.32174 13.9889 3.39772 13.9992C3.4737 14.0096 3.55104 14.0023 3.62376 13.978C3.69648 13.9536 3.76263 13.9129 3.8171 13.8589L7.5871 10.1129C7.65311 10.0476 7.69961 9.96514 7.72139 9.87483C7.74317 9.78453 7.73936 9.68994 7.71039 9.60168C7.68142 9.51342 7.62843 9.43498 7.55738 9.37515C7.48632 9.31532 7.4 9.27646 7.3081 9.26294L5.5931 9.00694C5.5548 9.00137 5.51832 8.98699 5.48653 8.96492C5.45473 8.94286 5.4285 8.91371 5.40989 8.87978C5.39127 8.84585 5.38079 8.80807 5.37927 8.7694C5.37774 8.73073 5.38521 8.69223 5.4011 8.65694C5.99674 7.30835 6.94251 6.14379 8.14022 5.28415C9.33793 4.42451 10.7439 3.90114 12.2122 3.76836C13.6805 3.63559 15.1575 3.89826 16.49 4.5291C17.8225 5.15994 18.9618 6.13596 19.7897 7.35582C20.6176 8.57567 21.1039 9.99491 21.1981 11.4662C21.2923 12.9374 20.991 14.4071 20.3254 15.7226C19.6598 17.038 18.6542 18.1513 17.413 18.9469C16.1718 19.7425 14.7403 20.1914 13.2671 20.2469C12.9356 20.2529 12.62 20.3903 12.3898 20.629C12.1596 20.8676 12.0336 21.1879 12.0396 21.5194C12.0456 21.851 12.183 22.1665 12.4216 22.3967C12.6603 22.6269 12.9806 22.7529 13.3121 22.7469H13.3591C14.7758 22.7035 16.17 22.3803 17.4614 21.7959C18.7528 21.2116 19.9158 20.3777 20.8837 19.3422C21.8516 18.3066 22.6051 17.09 23.101 15.7621C23.5968 14.4342 23.8252 13.0214 23.773 11.605C23.7208 10.1885 23.389 8.79638 22.7968 7.50864C22.2045 6.2209 21.3634 5.06298 20.3219 4.10152C19.2805 3.14006 18.0592 2.39403 16.7283 1.90636C15.3974 1.41869 13.9832 1.199 12.5671 1.25994V1.25794Z" fill="currentColor"/>
</svg>
