<svg width="24" height="24" viewBox="0 0 24 24" fill="currentColor" xmlns="http://www.w3.org/2000/svg">
<g clip-path="url(#clip0)">
<path d="M23.3739 0.287034C23.0506 0.0552491 22.6484 -0.0386176 22.2559 0.0260818C21.8634 0.0907811 21.5127 0.308747 21.2809 0.632034L7.24588 20.2L2.56088 15.511C2.42162 15.3717 2.25627 15.2612 2.07428 15.1857C1.8923 15.1103 1.69724 15.0715 1.50024 15.0714C1.30324 15.0714 1.10816 15.1101 0.926136 15.1855C0.744114 15.2608 0.578715 15.3713 0.439383 15.5105C0.30005 15.6498 0.189513 15.8151 0.114082 15.9971C0.0386502 16.1791 -0.000197672 16.3742 -0.000244099 16.5712C-0.000290526 16.7682 0.0384654 16.9633 0.113811 17.1453C0.189157 17.3273 0.299616 17.4927 0.438883 17.632L6.37388 23.566C6.5297 23.716 6.71563 23.8311 6.91932 23.9037C7.12301 23.9763 7.33981 24.0047 7.55534 23.9871C7.77087 23.9695 7.98019 23.9063 8.16941 23.8016C8.35864 23.697 8.52344 23.5533 8.65288 23.38L23.7189 2.38003C23.9507 2.05673 24.0445 1.6546 23.9798 1.26209C23.9151 0.869577 23.6972 0.518842 23.3739 0.287034Z" fill="currentColor"/>
</g>
<defs>
<clipPath id="clip0">
<rect width="24" height="24" fill="white"/>
</clipPath>
</defs>
</svg>
