<svg width="24" height="24" viewBox="0 0 24 24" fill="currentColor" xmlns="http://www.w3.org/2000/svg">
<g clip-path="url(#clip0)">
<path d="M14.2999 12.179C14.2766 12.1558 14.2581 12.1282 14.2455 12.0979C14.2329 12.0675 14.2264 12.0349 14.2264 12.002C14.2264 11.9692 14.2329 11.9366 14.2455 11.9062C14.2581 11.8759 14.2766 11.8483 14.2999 11.825L23.5629 2.56304C23.8441 2.28138 24.002 1.89953 24.0017 1.50148C24.0014 1.10344 23.843 0.721806 23.5614 0.440544C23.2797 0.159281 22.8979 0.00142806 22.4998 0.00170936C22.1018 0.00199066 21.7201 0.160384 21.4389 0.442043L12.1769 9.70004C12.1537 9.72333 12.1261 9.7418 12.0957 9.7544C12.0653 9.767 12.0328 9.77349 11.9999 9.77349C11.967 9.77349 11.9344 9.767 11.9041 9.7544C11.8737 9.7418 11.8461 9.72333 11.8229 9.70004L2.56088 0.442043C2.42162 0.302711 2.25627 0.192173 2.07428 0.116742C1.8923 0.0413108 1.69724 0.00246287 1.50024 0.00241644C1.10238 0.00232268 0.720778 0.160281 0.439383 0.441543C0.157988 0.722806 -0.000150331 1.10433 -0.000244099 1.50219C-0.000337867 1.90005 0.157621 2.28165 0.438883 2.56304L9.69988 11.825C9.72316 11.8483 9.74164 11.8759 9.75424 11.9062C9.76684 11.9366 9.77333 11.9692 9.77333 12.002C9.77333 12.0349 9.76684 12.0675 9.75424 12.0979C9.74164 12.1282 9.72316 12.1558 9.69988 12.179L0.438883 21.442C0.299616 21.5814 0.189157 21.7468 0.113811 21.9288C0.0384654 22.1108 -0.000290528 22.3059 -0.000244099 22.5029C-0.000150331 22.9008 0.157988 23.2823 0.439383 23.5635C0.578715 23.7028 0.744114 23.8133 0.926136 23.8886C1.10816 23.964 1.30324 24.0027 1.50024 24.0027C1.89809 24.0026 2.27962 23.8444 2.56088 23.563L11.8229 14.3C11.8461 14.2768 11.8737 14.2583 11.9041 14.2457C11.9344 14.2331 11.967 14.2266 11.9999 14.2266C12.0328 14.2266 12.0653 14.2331 12.0957 14.2457C12.1261 14.2583 12.1537 14.2768 12.1769 14.3L21.4389 23.563C21.7201 23.8444 22.1017 24.0026 22.4995 24.0027C22.8974 24.0028 23.279 23.8448 23.5604 23.5635C23.8418 23.2823 23.9999 22.9008 24 22.5029C24.0001 22.105 23.8421 21.7234 23.5609 21.442L14.2999 12.179Z" fill="currentColor"/>
</g>
<defs>
<clipPath id="clip0">
<rect width="24" height="24" fill="white"/>
</clipPath>
</defs>
</svg>
