<svg width="24" height="24" viewBox="0 0 24 24" fill="currentColor" xmlns="http://www.w3.org/2000/svg">
<g clip-path="url(#clip0)">
<path d="M18.25 4.5H19C19.1326 4.5 19.2598 4.55268 19.3536 4.64645C19.4473 4.74021 19.5 4.86739 19.5 5V5.75C19.5 5.94891 19.579 6.13968 19.7197 6.28033C19.8603 6.42098 20.0511 6.5 20.25 6.5C20.4489 6.5 20.6397 6.42098 20.7803 6.28033C20.921 6.13968 21 5.94891 21 5.75V5C21 4.86739 21.0527 4.74021 21.1464 4.64645C21.2402 4.55268 21.3674 4.5 21.5 4.5H22.25C22.4489 4.5 22.6397 4.42098 22.7803 4.28033C22.921 4.13968 23 3.94891 23 3.75C23 3.55109 22.921 3.36032 22.7803 3.21967C22.6397 3.07902 22.4489 3 22.25 3H21.5C21.3674 3 21.2402 2.94732 21.1464 2.85355C21.0527 2.75979 21 2.63261 21 2.5V1.75C21 1.55109 20.921 1.36032 20.7803 1.21967C20.6397 1.07902 20.4489 1 20.25 1C20.0511 1 19.8603 1.07902 19.7197 1.21967C19.579 1.36032 19.5 1.55109 19.5 1.75V2.5C19.5 2.63261 19.4473 2.75979 19.3536 2.85355C19.2598 2.94732 19.1326 3 19 3H18.25C18.0511 3 17.8603 3.07902 17.7197 3.21967C17.579 3.36032 17.5 3.55109 17.5 3.75C17.5 3.94891 17.579 4.13968 17.7197 4.28033C17.8603 4.42098 18.0511 4.5 18.25 4.5Z" fill="currentColor"/>
<path d="M4.75 16.5H4.25C4.1837 16.5 4.12011 16.4737 4.07322 16.4268C4.02634 16.3799 4 16.3163 4 16.25V15.75C4 15.5511 3.92098 15.3603 3.78033 15.2197C3.63968 15.079 3.44891 15 3.25 15C3.05109 15 2.86032 15.079 2.71967 15.2197C2.57902 15.3603 2.5 15.5511 2.5 15.75V16.25C2.5 16.3163 2.47366 16.3799 2.42678 16.4268C2.37989 16.4737 2.3163 16.5 2.25 16.5H1.75C1.55109 16.5 1.36032 16.579 1.21967 16.7197C1.07902 16.8603 1 17.0511 1 17.25C1 17.4489 1.07902 17.6397 1.21967 17.7803C1.36032 17.921 1.55109 18 1.75 18H2.25C2.3163 18 2.37989 18.0263 2.42678 18.0732C2.47366 18.1201 2.5 18.1837 2.5 18.25V18.75C2.5 18.9489 2.57902 19.1397 2.71967 19.2803C2.86032 19.421 3.05109 19.5 3.25 19.5C3.44891 19.5 3.63968 19.421 3.78033 19.2803C3.92098 19.1397 4 18.9489 4 18.75V18.25C4 18.1837 4.02634 18.1201 4.07322 18.0732C4.12011 18.0263 4.1837 18 4.25 18H4.75C4.94891 18 5.13968 17.921 5.28033 17.7803C5.42098 17.6397 5.5 17.4489 5.5 17.25C5.5 17.0511 5.42098 16.8603 5.28033 16.7197C5.13968 16.579 4.94891 16.5 4.75 16.5Z" fill="currentColor"/>
<path d="M15.8079 10.142C15.8228 9.90264 15.7609 9.66473 15.6312 9.46294C15.5015 9.26115 15.3109 9.10599 15.0869 9.02004L12.8999 8.15904C12.8082 8.12301 12.7292 8.0607 12.6728 7.97993C12.6164 7.89916 12.5852 7.80353 12.5829 7.70504L12.5289 5.25204C12.5337 5.02624 12.471 4.80415 12.3488 4.61423C12.2266 4.42431 12.0504 4.27521 11.8429 4.18604C11.636 4.10055 11.408 4.07953 11.1889 4.12574C10.9698 4.17196 10.7697 4.28324 10.6149 4.44504L9.29993 5.76504C9.2336 5.83138 9.14994 5.87772 9.05851 5.89876C8.96709 5.91981 8.87159 5.9147 8.78293 5.88404L6.59993 5.12804H6.59093C6.38643 5.06151 6.16749 5.05304 5.95847 5.10356C5.74944 5.15408 5.55854 5.26161 5.407 5.41418C5.25546 5.56676 5.14923 5.75839 5.10014 5.96776C5.05104 6.17712 5.06101 6.396 5.12893 6.60004L5.88393 8.78504C5.91459 8.8737 5.91969 8.9692 5.89865 9.06062C5.87761 9.15205 5.83127 9.23571 5.76493 9.30204L4.44293 10.62C4.28095 10.7747 4.1696 10.9748 4.12355 11.194C4.0775 11.4132 4.09889 11.6412 4.18493 11.848C4.2767 12.0508 4.42466 12.223 4.61129 12.3442C4.79792 12.4654 5.01539 12.5306 5.23793 12.532L7.70493 12.587C7.80347 12.589 7.89924 12.62 7.98019 12.6763C8.06115 12.7325 8.12368 12.8114 8.15993 12.903L9.01893 15.086C9.10128 15.3001 9.24696 15.484 9.43653 15.6132C9.62609 15.7424 9.85054 15.8107 10.0799 15.809C10.0999 15.809 10.1209 15.809 10.1419 15.809C10.3863 15.799 10.6211 15.7111 10.8119 15.5582C11.0028 15.4053 11.1398 15.1953 11.2029 14.959L11.9469 12.296C11.9701 12.2133 12.0141 12.1378 12.0749 12.077C12.1357 12.0163 12.2111 11.9722 12.2939 11.949L14.9579 11.204C15.1944 11.1409 15.4044 11.0037 15.5573 10.8126C15.7103 10.6216 15.7981 10.3866 15.8079 10.142Z" fill="currentColor"/>
<path d="M2.72006 3.78006C2.86144 3.91675 3.05086 3.99243 3.24751 3.99082C3.44416 3.9892 3.63231 3.91041 3.77143 3.77142C3.91055 3.63243 3.98952 3.44436 3.99132 3.24771C3.99312 3.05106 3.91761 2.86158 3.78106 2.72006L2.28106 1.22006C2.13967 1.08337 1.95025 1.00769 1.7536 1.0093C1.55696 1.01092 1.36881 1.08971 1.22969 1.2287C1.09056 1.36769 1.0116 1.55576 1.0098 1.75241C1.008 1.94906 1.0835 2.13854 1.22006 2.28006L2.72006 3.78006Z" fill="currentColor"/>
<path d="M8.75 3.5C8.94891 3.5 9.13968 3.42098 9.28033 3.28033C9.42098 3.13968 9.5 2.94891 9.5 2.75V0.75C9.5 0.551088 9.42098 0.360322 9.28033 0.21967C9.13968 0.0790176 8.94891 0 8.75 0C8.55109 0 8.36032 0.0790176 8.21967 0.21967C8.07902 0.360322 8 0.551088 8 0.75V2.75C8 2.94891 8.07902 3.13968 8.21967 3.28033C8.36032 3.42098 8.55109 3.5 8.75 3.5Z" fill="currentColor"/>
<path d="M3.5 9.25C3.5 9.05109 3.42098 8.86032 3.28033 8.71967C3.13968 8.57902 2.94891 8.5 2.75 8.5H0.75C0.551088 8.5 0.360322 8.57902 0.21967 8.71967C0.0790176 8.86032 0 9.05109 0 9.25C0 9.44891 0.0790176 9.63968 0.21967 9.78033C0.360322 9.92098 0.551088 10 0.75 10H2.75C2.94891 10 3.13968 9.92098 3.28033 9.78033C3.42098 9.63968 3.5 9.44891 3.5 9.25Z" fill="currentColor"/>
<path d="M23.3581 20.654L14.4931 12.77C14.3978 12.6852 14.2736 12.64 14.1461 12.6438C14.0186 12.6475 13.8973 12.6998 13.8071 12.79L12.7901 13.807C12.7001 13.8972 12.648 14.0183 12.6443 14.1456C12.6405 14.2729 12.6855 14.3968 12.7701 14.492L20.6551 23.358C20.8267 23.5587 21.0379 23.7217 21.2755 23.8369C21.5132 23.952 21.772 24.0167 22.0359 24.027C22.2997 24.0373 22.5628 23.9929 22.8087 23.8966C23.0546 23.8004 23.2779 23.6543 23.4646 23.4676C23.6513 23.2809 23.7974 23.0576 23.8937 22.8117C23.9899 22.5658 24.0343 22.3027 24.024 22.0389C24.0137 21.775 23.949 21.5162 23.8339 21.2785C23.7188 21.0409 23.5557 20.8297 23.3551 20.658L23.3581 20.654Z" fill="currentColor"/>
</g>
<defs>
<clipPath id="clip0">
<rect width="24" height="24" fill="white"/>
</clipPath>
</defs>
</svg>
