<svg width="24" height="24" viewBox="0 0 24 24" fill="currentColor" xmlns="http://www.w3.org/2000/svg">
<path d="M16 0.996948H8C7.17157 0.996948 6.5 1.66852 6.5 2.49695V21.4969C6.5 22.3254 7.17157 22.9969 8 22.9969H16C16.8284 22.9969 17.5 22.3254 17.5 21.4969V2.49695C17.5 1.66852 16.8284 0.996948 16 0.996948Z" fill="currentColor"/>
<path d="M3 2.49695H1.5C0.671573 2.49695 0 3.16852 0 3.99695V19.9969C0 20.8254 0.671573 21.4969 1.5 21.4969H3C3.82843 21.4969 4.5 20.8254 4.5 19.9969V3.99695C4.5 3.16852 3.82843 2.49695 3 2.49695Z" fill="currentColor"/>
<path d="M22.5 2.49695H21C20.1716 2.49695 19.5 3.16852 19.5 3.99695V19.9969C19.5 20.8254 20.1716 21.4969 21 21.4969H22.5C23.3284 21.4969 24 20.8254 24 19.9969V3.99695C24 3.16852 23.3284 2.49695 22.5 2.49695Z" fill="currentColor"/>
</svg>
