<svg width="24" height="24" viewBox="0 0 24 24" fill="currentColor" xmlns="http://www.w3.org/2000/svg">
<path d="M23.3001 5.07602C22.8298 4.16026 22.1513 3.36757 21.3191 2.76164C20.4869 2.15571 19.5241 1.75343 18.5082 1.58713C17.4923 1.42082 16.4515 1.49513 15.4696 1.80408C14.4876 2.11302 13.5917 2.648 12.8541 3.36602L12.0001 4.14702L11.1731 3.39402C10.4371 2.66209 9.53704 2.11639 8.54774 1.80227C7.55844 1.48816 6.50845 1.41471 5.48505 1.58802C4.46759 1.74665 3.50266 2.14579 2.67043 2.75226C1.8382 3.35873 1.16271 4.15504 0.700054 5.07502C0.0816291 6.28693 -0.134477 7.6644 0.0831055 9.00748C0.300688 10.3506 0.940634 11.5893 1.91005 12.544L11.2831 22.2C11.3762 22.2959 11.4877 22.3721 11.6109 22.4241C11.734 22.4761 11.8664 22.5029 12.0001 22.5029C12.1337 22.5029 12.2661 22.4761 12.3892 22.4241C12.5124 22.3721 12.6239 22.2959 12.7171 22.2L22.0771 12.562C23.0504 11.6064 23.6938 10.3654 23.9137 9.01918C24.1337 7.67297 23.9187 6.29171 23.3001 5.07602Z" fill="currentColor"/>
</svg>
