<svg width="24" height="24" viewBox="0 0 24 24" fill="currentColor" xmlns="http://www.w3.org/2000/svg">
<g clip-path="url(#clip0)">
<path d="M20.5 9.00001C20.5 8.46958 20.2893 7.96087 19.9142 7.58579C19.5391 7.21072 19.0304 7.00001 18.5 7.00001H15.25C15.1837 7.00001 15.1201 7.02635 15.0732 7.07323C15.0263 7.12012 15 7.1837 15 7.25001V8.75001C15 8.81631 15.0263 8.8799 15.0732 8.92678C15.1201 8.97367 15.1837 9.00001 15.25 9.00001H18C18.1326 9.00001 18.2598 9.05269 18.3536 9.14645C18.4473 9.24022 18.5 9.3674 18.5 9.50001V21.5C18.5 21.6326 18.4473 21.7598 18.3536 21.8536C18.2598 21.9473 18.1326 22 18 22H6C5.86739 22 5.74021 21.9473 5.64645 21.8536C5.55268 21.7598 5.5 21.6326 5.5 21.5V9.50001C5.5 9.3674 5.55268 9.24022 5.64645 9.14645C5.74021 9.05269 5.86739 9.00001 6 9.00001H8.75C8.78291 9.00001 8.81551 8.99351 8.8459 8.98088C8.8763 8.96826 8.9039 8.94975 8.92713 8.92643C8.95036 8.90311 8.96875 8.87543 8.98126 8.84499C8.99376 8.81454 9.00013 8.78192 9 8.74901V7.24901C8.99987 7.21609 8.99324 7.18353 8.98049 7.15318C8.96775 7.12283 8.94913 7.0953 8.92572 7.07217C8.9023 7.04903 8.87455 7.03075 8.84405 7.01837C8.81356 7.00598 8.78091 6.99974 8.748 7.00001H5.5C4.96957 7.00001 4.46086 7.21072 4.08579 7.58579C3.71071 7.96087 3.5 8.46958 3.5 9.00001V22C3.5 22.5304 3.71071 23.0391 4.08579 23.4142C4.46086 23.7893 4.96957 24 5.5 24H18.5C19.0304 24 19.5391 23.7893 19.9142 23.4142C20.2893 23.0391 20.5 22.5304 20.5 22V9.00001Z" fill="currentColor"/>
<path d="M10.5 11.0001C10.5 11.3979 10.658 11.7794 10.9393 12.0607C11.2207 12.342 11.6022 12.5001 12 12.5001C12.3978 12.5001 12.7794 12.342 13.0607 12.0607C13.342 11.7794 13.5 11.3979 13.5 11.0001V5.74905C13.5 5.68275 13.5263 5.61916 13.5732 5.57228C13.6201 5.52539 13.6837 5.49905 13.75 5.49905H15.5C15.6972 5.49764 15.8895 5.43797 16.0528 5.32756C16.2162 5.21714 16.3432 5.06091 16.418 4.87849C16.4929 4.69608 16.5121 4.49562 16.4733 4.30231C16.4345 4.10901 16.3394 3.93148 16.2 3.79205L12.7 0.292054C12.5125 0.104583 12.2582 -0.000732422 11.993 -0.000732422C11.7278 -0.000732422 11.4735 0.104583 11.286 0.292054L7.78601 3.79205C7.64542 3.93227 7.54976 4.11117 7.51121 4.30595C7.47267 4.50073 7.49298 4.70258 7.56956 4.88577C7.64614 5.06897 7.77553 5.22522 7.94123 5.33462C8.10693 5.44402 8.30145 5.50161 8.50001 5.50005H10.25C10.3163 5.50005 10.3799 5.52639 10.4268 5.57328C10.4737 5.62016 10.5 5.68375 10.5 5.75005V11.0001Z" fill="currentColor"/>
</g>
<defs>
<clipPath id="clip0">
<rect width="24" height="24" fill="white"/>
</clipPath>
</defs>
</svg>
