<svg width="24" height="24" viewBox="0 0 24 24" fill="currentColor" xmlns="http://www.w3.org/2000/svg">
<path d="M12 12.5C13.1867 12.5 14.3467 12.1481 15.3334 11.4888C16.3201 10.8295 17.0892 9.89246 17.5433 8.7961C17.9974 7.69975 18.1162 6.49335 17.8847 5.32946C17.6532 4.16558 17.0818 3.09648 16.2426 2.25736C15.4035 1.41825 14.3344 0.846802 13.1705 0.615291C12.0067 0.38378 10.8003 0.5026 9.7039 0.956726C8.60754 1.41085 7.67047 2.17989 7.01118 3.16658C6.35189 4.15328 6 5.31331 6 6.5C6.00159 8.09081 6.63424 9.61602 7.75911 10.7409C8.88399 11.8658 10.4092 12.4984 12 12.5ZM12 10.5C10.9391 10.5 9.92172 10.0786 9.17157 9.32843C8.42143 8.57828 8 7.56087 8 6.5C8.00166 5.99557 8.10152 5.49628 8.294 5.03C8.30782 4.9968 8.3285 4.96689 8.3547 4.94224C8.3809 4.9176 8.41201 4.89877 8.446 4.887C8.48026 4.87551 8.51661 4.87162 8.55253 4.87559C8.58845 4.87956 8.62308 4.8913 8.654 4.91C10.1419 5.8019 11.8442 6.27268 13.579 6.272C14.2856 6.27154 14.9899 6.19238 15.679 6.036C15.713 6.02865 15.7481 6.02851 15.7822 6.03556C15.8162 6.04262 15.8484 6.05673 15.8767 6.07699C15.9049 6.09724 15.9286 6.12319 15.9463 6.15316C15.9639 6.18313 15.975 6.21646 15.979 6.251C15.9905 6.33356 15.9976 6.41668 16 6.5C16 7.56087 15.5786 8.57828 14.8284 9.32843C14.0783 10.0786 13.0609 10.5 12 10.5Z" fill="currentColor"/>
<path d="M12 13.5C9.48134 13.5029 7.06667 14.5047 5.2857 16.2857C3.50474 18.0667 2.50291 20.4813 2.5 23C2.5 23.1326 2.55268 23.2598 2.64645 23.3536C2.74021 23.4473 2.86739 23.5 3 23.5H21C21.1326 23.5 21.2598 23.4473 21.3536 23.3536C21.4473 23.2598 21.5 23.1326 21.5 23C21.4971 20.4813 20.4953 18.0667 18.7143 16.2857C16.9333 14.5047 14.5187 13.5029 12 13.5Z" fill="currentColor"/>
</svg>
