<svg width="24" height="24" viewBox="0 0 24 24" fill="currentColor" xmlns="http://www.w3.org/2000/svg">
<path d="M18 6.37196C18 6.32158 17.9846 6.2724 17.956 6.23096C17.456 5.50896 16.948 4.81696 16.447 4.17396C16.415 4.13294 16.3709 4.10295 16.321 4.08817C16.2711 4.07339 16.2178 4.07456 16.1686 4.09152C16.1194 4.10847 16.0767 4.14037 16.0464 4.18276C16.0162 4.22514 16 4.27591 16 4.32796V22.736C16.0002 22.7779 16.0108 22.8192 16.0308 22.856C16.0509 22.8928 16.0798 22.9241 16.115 22.947C16.1504 22.9696 16.191 22.9829 16.233 22.9857C16.2749 22.9885 16.3169 22.9807 16.355 22.963C16.8971 22.7119 17.4135 22.4089 17.897 22.058C17.9281 22.0347 17.9533 22.0045 17.9707 21.9698C17.9881 21.9351 17.9971 21.8968 17.997 21.858L18 6.37196Z" fill="currentColor"/>
<path d="M14.5 1.92704C14.5001 1.86584 14.4777 1.80675 14.437 1.76104C13.951 1.21104 13.525 0.752039 13.217 0.428039C13.1158 0.322774 12.9995 0.233128 12.872 0.162039C12.8339 0.140733 12.7909 0.129778 12.7472 0.130265C12.7036 0.130751 12.6608 0.142661 12.6232 0.16481C12.5855 0.186959 12.5544 0.218575 12.5328 0.256511C12.5112 0.294447 12.4999 0.33738 12.5 0.381039V23.619C12.4999 23.6533 12.5069 23.6873 12.5205 23.7188C12.5341 23.7503 12.5541 23.7787 12.5791 23.8021C12.6042 23.8256 12.6338 23.8436 12.6661 23.8551C12.6984 23.8666 12.7328 23.8714 12.767 23.869C13.2839 23.8335 13.7976 23.7606 14.304 23.651C14.3604 23.6397 14.4111 23.6092 14.4476 23.5648C14.484 23.5203 14.504 23.4645 14.504 23.407L14.5 1.92704Z" fill="currentColor"/>
<path d="M11 0.515011C11 0.489871 10.9924 0.465315 10.9783 0.444501C10.9642 0.423686 10.9442 0.407565 10.9209 0.398209C10.8976 0.388854 10.872 0.386693 10.8474 0.392004C10.8228 0.397315 10.8004 0.409855 10.783 0.428011C8.83901 2.46801 2.50001 9.53901 2.50001 14.906C2.49739 17.1549 3.34189 19.3223 4.86536 20.9766C6.38883 22.6309 8.47948 23.6508 10.721 23.833C10.7561 23.8369 10.7916 23.8334 10.8252 23.8227C10.8588 23.812 10.8898 23.7943 10.9161 23.7708C10.9425 23.7473 10.9635 23.7186 10.978 23.6864C10.9924 23.6542 10.9999 23.6193 11 23.584V0.515011Z" fill="currentColor"/>
<path d="M19.5 19.806C19.4999 19.8594 19.5169 19.9114 19.5485 19.9544C19.5802 19.9974 19.6247 20.0292 19.6757 20.0451C19.7266 20.0609 19.7813 20.0601 19.8318 20.0426C19.8822 20.0251 19.9258 19.992 19.956 19.948C20.9739 18.4647 21.5128 16.705 21.5 14.906C21.4006 13.0443 20.8784 11.2297 19.973 9.60001C19.9476 9.54995 19.9062 9.50989 19.8553 9.48626C19.8044 9.46263 19.747 9.45681 19.6924 9.46974C19.6378 9.48267 19.5891 9.5136 19.5542 9.55754C19.5193 9.60149 19.5002 9.65589 19.5 9.71201V19.806Z" fill="currentColor"/>
</svg>
