<svg width="24" height="24" viewBox="0 0 24 24" fill="currentColor" xmlns="http://www.w3.org/2000/svg">
<g clip-path="url(#clip0)">
<path d="M23 19.99C23.2652 19.99 23.5196 19.8846 23.7071 19.6971C23.8946 19.5096 24 19.2552 24 18.99C24 18.7248 23.8946 18.4704 23.7071 18.2829C23.5196 18.0954 23.2652 17.99 23 17.99H22.019C21.9667 17.9899 21.9158 17.9734 21.8733 17.943C21.8308 17.9125 21.7989 17.8695 21.782 17.82L17.108 4.139C17.0478 3.89048 16.9059 3.6694 16.7049 3.51129C16.504 3.35318 16.2557 3.26721 16 3.26721C15.7443 3.26721 15.496 3.35318 15.2951 3.51129C15.0941 3.6694 14.9522 3.89048 14.892 4.139L10.218 17.82C10.2011 17.8695 10.1692 17.9125 10.1267 17.943C10.0842 17.9734 10.0333 17.9899 9.981 17.99H9C8.73478 17.99 8.48043 18.0954 8.29289 18.2829C8.10536 18.4704 8 18.7248 8 18.99C8 19.2552 8.10536 19.5096 8.29289 19.6971C8.48043 19.8846 8.73478 19.99 9 19.99H13C13.2652 19.99 13.5196 19.8846 13.7071 19.6971C13.8946 19.5096 14 19.2552 14 18.99C14 18.7248 13.8946 18.4704 13.7071 18.2829C13.5196 18.0954 13.2652 17.99 13 17.99H12.623C12.5841 17.9902 12.5458 17.9813 12.511 17.9639C12.4763 17.9466 12.4461 17.9212 12.423 17.89C12.3998 17.8577 12.3846 17.8204 12.3787 17.7811C12.3727 17.7418 12.3763 17.7017 12.389 17.664L13.589 14.164C13.606 14.1147 13.638 14.0719 13.6805 14.0416C13.723 14.0114 13.7738 13.9951 13.826 13.995H18.188C18.2402 13.9951 18.291 14.0114 18.3335 14.0416C18.376 14.0719 18.408 14.1147 18.425 14.164L19.625 17.664C19.6379 17.7016 19.6416 17.7417 19.6359 17.7811C19.6301 17.8204 19.6151 17.8578 19.592 17.8901C19.569 17.9225 19.5385 17.9489 19.5032 17.9671C19.4679 17.9854 19.4287 17.9949 19.389 17.995H19C18.7348 17.995 18.4804 18.1004 18.2929 18.2879C18.1054 18.4754 18 18.7298 18 18.995C18 19.2602 18.1054 19.5146 18.2929 19.7021C18.4804 19.8896 18.7348 19.995 19 19.995L23 19.99ZM14.673 11.99C14.6332 11.9899 14.5941 11.9803 14.5588 11.962C14.5235 11.9438 14.493 11.9174 14.4698 11.8851C14.4467 11.8528 14.4316 11.8155 14.4257 11.7761C14.4198 11.7368 14.4233 11.6967 14.436 11.659L15.763 7.775C15.7799 7.7257 15.8118 7.68292 15.8542 7.65262C15.8966 7.62233 15.9474 7.60604 15.9995 7.60604C16.0516 7.60604 16.1024 7.62233 16.1448 7.65262C16.1872 7.68292 16.2191 7.7257 16.236 7.775L17.563 11.659C17.5759 11.6966 17.5796 11.7367 17.5739 11.7761C17.5681 11.8154 17.5531 11.8528 17.53 11.8851C17.507 11.9175 17.4765 11.9439 17.4412 11.9621C17.4059 11.9804 17.3667 11.9899 17.327 11.99H14.673Z" fill="currentColor"/>
<path d="M6.25003 18.489H4.75003C4.68372 18.489 4.62014 18.4627 4.57325 18.4158C4.52637 18.3689 4.50003 18.3053 4.50003 18.239V15.99C4.50003 15.7248 4.39467 15.4704 4.20714 15.2829C4.0196 15.0953 3.76525 14.99 3.50003 14.99C3.23481 14.99 2.98046 15.0953 2.79292 15.2829C2.60539 15.4704 2.50003 15.7248 2.50003 15.99V18.239C2.50003 18.3053 2.47369 18.3689 2.42681 18.4158C2.37992 18.4627 2.31633 18.489 2.25003 18.489H0.750029C0.610591 18.4886 0.473816 18.5272 0.355105 18.6003C0.236393 18.6735 0.140457 18.7783 0.0780978 18.903C0.0157388 19.0277 -0.0105673 19.1674 0.00214099 19.3063C0.0148493 19.4451 0.0660674 19.5777 0.150029 19.689L2.90003 23.356C2.97001 23.449 3.06064 23.5244 3.16477 23.5763C3.26889 23.6283 3.38367 23.6553 3.50003 23.6553C3.61639 23.6553 3.73117 23.6283 3.83529 23.5763C3.93942 23.5244 4.03005 23.449 4.10003 23.356L6.85003 19.69C6.9335 19.5785 6.9843 19.4459 6.99677 19.3072C7.00923 19.1684 6.98286 19.029 6.92061 18.9044C6.85835 18.7797 6.76266 18.6749 6.64424 18.6015C6.52582 18.5282 6.38933 18.4892 6.25003 18.489Z" fill="currentColor"/>
<path d="M6.85 4.28995L4.1 0.622948C4.02701 0.534517 3.93537 0.463314 3.83164 0.414435C3.72791 0.365556 3.61467 0.34021 3.5 0.34021C3.38533 0.34021 3.27209 0.365556 3.16836 0.414435C3.06463 0.463314 2.97299 0.534517 2.9 0.622948L0.15 4.28995C0.06643 4.40138 0.0155393 4.53387 0.00303087 4.67259C-0.00947761 4.81132 0.0168903 4.95078 0.07918 5.07536C0.14147 5.19994 0.23722 5.30471 0.355702 5.37794C0.474184 5.45116 0.610716 5.48995 0.75 5.48995H2.25C2.3163 5.48995 2.37989 5.51629 2.42678 5.56317C2.47366 5.61006 2.5 5.67364 2.5 5.73995V7.98995C2.5 8.25516 2.60536 8.50952 2.79289 8.69705C2.98043 8.88459 3.23478 8.98995 3.5 8.98995C3.76522 8.98995 4.01957 8.88459 4.20711 8.69705C4.39464 8.50952 4.5 8.25516 4.5 7.98995V5.73995C4.5 5.67364 4.52634 5.61006 4.57322 5.56317C4.62011 5.51629 4.6837 5.48995 4.75 5.48995H6.25C6.38928 5.48995 6.52582 5.45116 6.6443 5.37794C6.76278 5.30471 6.85853 5.19994 6.92082 5.07536C6.98311 4.95078 7.00948 4.81132 6.99697 4.67259C6.98446 4.53387 6.93357 4.40138 6.85 4.28995Z" fill="currentColor"/>
</g>
<defs>
<clipPath id="clip0">
<rect width="24" height="24" fill="white"/>
</clipPath>
</defs>
</svg>
