<svg width="24" height="24" viewBox="0 0 24 24" fill="currentColor" xmlns="http://www.w3.org/2000/svg">
<g clip-path="url(#clip0)">
<path d="M17.5671 20.509H16.9591C16.908 20.509 16.8583 20.493 16.8169 20.4632C16.7754 20.4334 16.7444 20.3914 16.7281 20.343L10.6431 2.52203C10.5446 2.23341 10.3585 1.98271 10.1108 1.80488C9.86305 1.62706 9.566 1.53098 9.26105 1.53003H9.25405C8.9478 1.53026 8.64928 1.62619 8.40024 1.80441C8.15119 1.98263 7.96408 2.23423 7.86505 2.52403L1.80005 20.343C1.78342 20.3914 1.75215 20.4333 1.71057 20.4631C1.66899 20.4928 1.61918 20.5089 1.56805 20.509H0.980051C0.848788 20.5048 0.718021 20.5271 0.595518 20.5744C0.473016 20.6217 0.361278 20.6932 0.266942 20.7846C0.172606 20.876 0.0975972 20.9854 0.046372 21.1063C-0.00485326 21.2272 -0.03125 21.3572 -0.03125 21.4885C-0.03125 21.6199 -0.00485326 21.7498 0.046372 21.8708C0.0975972 21.9917 0.172606 22.1011 0.266942 22.1925C0.361278 22.2838 0.473016 22.3553 0.595518 22.4027C0.718021 22.45 0.848788 22.4722 0.980051 22.468H3.92705C4.05578 22.4682 4.18328 22.4429 4.30224 22.3937C4.4212 22.3445 4.52928 22.2723 4.62031 22.1813C4.71134 22.0903 4.78352 21.9822 4.83272 21.8632C4.88192 21.7443 4.90718 21.6168 4.90705 21.488C4.91046 21.2578 4.83008 21.0342 4.68088 20.8589C4.53168 20.6836 4.32383 20.5685 4.09605 20.535C4.06162 20.5285 4.02903 20.5146 4.00053 20.4942C3.97203 20.4739 3.94832 20.4475 3.93105 20.417C3.9137 20.387 3.90295 20.3537 3.8995 20.3192C3.89605 20.2847 3.89999 20.2499 3.91105 20.217L5.41105 15.804C5.42768 15.7557 5.45895 15.7137 5.50053 15.684C5.54211 15.6542 5.59193 15.6382 5.64305 15.638H12.8731C12.9242 15.6382 12.974 15.6542 13.0156 15.684C13.0571 15.7137 13.0884 15.7557 13.1051 15.804L14.6121 20.219C14.6231 20.2518 14.6271 20.2866 14.6238 20.3211C14.6205 20.3555 14.61 20.3889 14.5929 20.419C14.5758 20.4491 14.5526 20.4753 14.5247 20.4958C14.4968 20.5163 14.4649 20.5307 14.4311 20.538C14.2073 20.5761 14.0044 20.6928 13.8591 20.8672C13.7137 21.0415 13.6353 21.262 13.6381 21.489C13.6379 21.6178 13.6632 21.7453 13.7124 21.8642C13.7616 21.9832 13.8338 22.0913 13.9248 22.1823C14.0158 22.2733 14.1239 22.3455 14.2429 22.3947C14.3618 22.4439 14.4893 22.4692 14.6181 22.469H17.5651C17.6963 22.4732 17.8271 22.451 17.9496 22.4037C18.0721 22.3563 18.1838 22.2848 18.2782 22.1935C18.3725 22.1021 18.4475 21.9927 18.4987 21.8718C18.55 21.7508 18.5764 21.6209 18.5764 21.4895C18.5764 21.3582 18.55 21.2282 18.4987 21.1073C18.4475 20.9864 18.3725 20.877 18.2782 20.7856C18.1838 20.6942 18.0721 20.6227 17.9496 20.5754C17.8271 20.5281 17.6963 20.5058 17.5651 20.51L17.5671 20.509ZM6.47905 13.678C6.44009 13.678 6.40168 13.6688 6.36702 13.651C6.33236 13.6332 6.30245 13.6073 6.27977 13.5757C6.25708 13.544 6.24228 13.5074 6.23659 13.4688C6.2309 13.4303 6.23449 13.3909 6.24705 13.354L9.02305 5.20003C9.0395 5.15155 9.07073 5.10945 9.11234 5.07963C9.15395 5.04981 9.20386 5.03378 9.25505 5.03378C9.30624 5.03378 9.35615 5.04981 9.39776 5.07963C9.43937 5.10945 9.4706 5.15155 9.48705 5.20003L12.2711 13.353C12.2834 13.39 12.2868 13.4294 12.2811 13.468C12.2754 13.5065 12.2606 13.5432 12.2381 13.575C12.215 13.6064 12.1849 13.6318 12.1501 13.6492C12.1153 13.6666 12.0769 13.6754 12.0381 13.675L6.47905 13.678Z" fill="currentColor"/>
<path d="M23.0201 20.509H22.8001C22.7489 20.5088 22.6991 20.4928 22.6576 20.463C22.616 20.4333 22.5847 20.3913 22.5681 20.343L18.3121 7.88598C18.2099 7.5824 18.0149 7.31857 17.7548 7.13167C17.4946 6.94477 17.1824 6.84424 16.8621 6.84424C16.5418 6.84424 16.2295 6.94477 15.9694 7.13167C15.7092 7.31857 15.5143 7.5824 15.4121 7.88598L14.2631 11.27C14.2216 11.3917 14.2045 11.5204 14.2127 11.6488C14.221 11.7771 14.2544 11.9026 14.3111 12.018C14.3679 12.1334 14.4468 12.2366 14.5434 12.3215C14.64 12.4064 14.7523 12.4715 14.8741 12.513C14.9958 12.5545 15.1245 12.5716 15.2529 12.5633C15.3812 12.5551 15.5067 12.5216 15.6221 12.4649C15.7375 12.4082 15.8407 12.3293 15.9256 12.2327C16.0105 12.1361 16.0756 12.0237 16.1171 11.902L16.6331 10.389C16.6497 10.3409 16.681 10.2991 16.7225 10.2696C16.764 10.2401 16.8136 10.2242 16.8646 10.2242C16.9155 10.2242 16.9652 10.2401 17.0067 10.2696C17.0481 10.2991 17.0794 10.3409 17.0961 10.389L18.5621 14.689C18.5748 14.7258 18.5786 14.7651 18.5731 14.8037C18.5675 14.8422 18.5529 14.8789 18.5302 14.9106C18.5076 14.9423 18.4777 14.9682 18.4431 14.986C18.4084 15.0038 18.37 15.0131 18.3311 15.013H16.9701C16.7157 15.0211 16.4745 15.1279 16.2974 15.3107C16.1204 15.4935 16.0214 15.738 16.0214 15.9925C16.0214 16.247 16.1204 16.4915 16.2974 16.6743C16.4745 16.8571 16.7157 16.9638 16.9701 16.972H19.1701C19.2212 16.9721 19.271 16.9882 19.3126 17.0179C19.3542 17.0477 19.3854 17.0896 19.4021 17.138L20.5021 20.35C20.5223 20.4057 20.5216 20.4668 20.5001 20.522C20.4786 20.5772 20.4377 20.6227 20.3851 20.65C20.2288 20.7298 20.0975 20.8512 20.0058 21.0008C19.9141 21.1504 19.8654 21.3225 19.8651 21.498C19.8649 21.6266 19.8902 21.754 19.9393 21.8729C19.9884 21.9918 20.0605 22.0999 20.1515 22.1909C20.2424 22.2819 20.3504 22.3541 20.4692 22.4034C20.588 22.4526 20.7154 22.478 20.8441 22.478H23.0201C23.1513 22.4822 23.2821 22.4599 23.4046 22.4126C23.5271 22.3653 23.6388 22.2938 23.7332 22.2024C23.8275 22.1111 23.9025 22.0017 23.9538 21.8807C24.005 21.7598 24.0314 21.6298 24.0314 21.4985C24.0314 21.3671 24.005 21.2372 23.9538 21.1162C23.9025 20.9953 23.8275 20.8859 23.7332 20.7945C23.6388 20.7032 23.5271 20.6317 23.4046 20.5843C23.2821 20.537 23.1513 20.5148 23.0201 20.519V20.509Z" fill="currentColor"/>
</g>
<defs>
<clipPath id="clip0">
<rect width="24" height="24" fill="white"/>
</clipPath>
</defs>
</svg>
