<svg width="24" height="24" viewBox="0 0 24 24" fill="currentColor" xmlns="http://www.w3.org/2000/svg">
<path d="M22.044 0H1.956C1.43783 0.000791843 0.941072 0.20685 0.57448 0.573067C0.207888 0.939284 0.00132194 1.43583 0 1.954L0 22.042C0.000264255 22.5609 0.206363 23.0584 0.57307 23.4255C0.939776 23.7926 1.43713 23.9992 1.956 24H22.044C22.5629 23.9992 23.0602 23.7926 23.4269 23.4255C23.7936 23.0584 23.9997 22.5609 24 22.042V1.954C23.9987 1.43583 23.7921 0.939284 23.4255 0.573067C23.0589 0.20685 22.5622 0.000791843 22.044 0V0ZM21 22L3 22.04C2.73478 22.04 2.48043 21.9346 2.29289 21.7471C2.10536 21.5596 2 21.3052 2 21.04L1.958 3C1.958 2.73478 2.06336 2.48043 2.25089 2.29289C2.43843 2.10536 2.69278 2 2.958 2L21 1.956C21.2652 1.956 21.5196 2.06136 21.7071 2.24889C21.8946 2.43643 22 2.69078 22 2.956V21C22 21.2652 21.8946 21.5196 21.7071 21.7071C21.5196 21.8946 21.2652 22 21 22Z" fill="currentColor"/>
<path d="M4.5 8.5H19.5C19.7652 8.5 20.0196 8.39464 20.2071 8.20711C20.3946 8.01957 20.5 7.76522 20.5 7.5C20.5 7.23478 20.3946 6.98043 20.2071 6.79289C20.0196 6.60536 19.7652 6.5 19.5 6.5H4.5C4.23478 6.5 3.98043 6.60536 3.79289 6.79289C3.60536 6.98043 3.5 7.23478 3.5 7.5C3.5 7.76522 3.60536 8.01957 3.79289 8.20711C3.98043 8.39464 4.23478 8.5 4.5 8.5Z" fill="currentColor"/>
<path d="M4.5 13.5H19.5C19.7652 13.5 20.0196 13.3946 20.2071 13.2071C20.3946 13.0196 20.5 12.7652 20.5 12.5C20.5 12.2348 20.3946 11.9804 20.2071 11.7929C20.0196 11.6054 19.7652 11.5 19.5 11.5H4.5C4.23478 11.5 3.98043 11.6054 3.79289 11.7929C3.60536 11.9804 3.5 12.2348 3.5 12.5C3.5 12.7652 3.60536 13.0196 3.79289 13.2071C3.98043 13.3946 4.23478 13.5 4.5 13.5Z" fill="currentColor"/>
<path d="M4.5 18.5H10.5C10.7652 18.5 11.0196 18.3946 11.2071 18.2071C11.3946 18.0196 11.5 17.7652 11.5 17.5C11.5 17.2348 11.3946 16.9804 11.2071 16.7929C11.0196 16.6054 10.7652 16.5 10.5 16.5H4.5C4.23478 16.5 3.98043 16.6054 3.79289 16.7929C3.60536 16.9804 3.5 17.2348 3.5 17.5C3.5 17.7652 3.60536 18.0196 3.79289 18.2071C3.98043 18.3946 4.23478 18.5 4.5 18.5Z" fill="currentColor"/>
</svg>
